<mxfile host="app.diagrams.net" modified="2022-03-21T11:15:29.160Z" agent="5.0 (X11)" etag="aYedSZYUk8NavCzmxv-o" version="17.1.3" type="github">
  <diagram id="c6Dlw63LILMpKGhu5R8e" name="Page-1">
    <mxGraphModel dx="1422" dy="760" grid="1" gridSize="10" guides="1" tooltips="1" connect="1" arrows="1" fold="1" page="1" pageScale="1" pageWidth="850" pageHeight="1100" math="0" shadow="0">
      <root>
        <mxCell id="0" />
        <mxCell id="1" parent="0" />
        <mxCell id="RubmiMunHw6X2zbcGLyl-1" value="testi" style="text;html=1;align=center;verticalAlign=middle;resizable=0;points=[];autosize=1;strokeColor=none;fillColor=none;" vertex="1" parent="1">
          <mxGeometry x="430" y="330" width="40" height="20" as="geometry" />
        </mxCell>
      </root>
    </mxGraphModel>
  </diagram>
</mxfile>
